<?xml version="1.0" encoding="utf-8"?>
<!-- Generator: Adobe Illustrator 15.0.0, SVG Export Plug-In . SVG Version: 6.00 Build 0)  -->
<!DOCTYPE svg PUBLIC "-//W3C//DTD SVG 1.1//EN" "http://www.w3.org/Graphics/SVG/1.1/DTD/svg11.dtd">
<svg version="1.1" id="Capa_1" xmlns="http://www.w3.org/2000/svg" xmlns:xlink="http://www.w3.org/1999/xlink" x="0px" y="0px"
	 width="600px" height="600px" viewBox="0 0 600 600" enable-background="new 0 0 600 600" xml:space="preserve">
<g>
	<path fill="#222221" d="M447.455,95.799h-294.91c-34.474,0-62.521,28.048-62.521,62.518V441.68
		c0,34.471,28.047,62.521,62.521,62.521h294.91c34.475,0,62.52-28.051,62.52-62.521V158.316
		C509.975,123.847,481.93,95.799,447.455,95.799z M486.084,441.68c0,21.3-17.328,38.631-38.629,38.631h-294.91
		c-21.301,0-38.63-17.331-38.63-38.631V158.316c0-21.299,17.329-38.627,38.63-38.627h294.91c21.301,0,38.629,17.328,38.629,38.627
		V441.68z"/>
	<path fill="#222221" d="M429.409,305.867V172.502c0-6.596-5.349-11.945-11.945-11.945s-11.945,5.35-11.945,11.945v133.365
		c-17.767,5.184-30.796,21.586-30.796,41.01c0,19.421,13.029,35.824,30.796,41.008v39.61c0,6.597,5.349,11.945,11.945,11.945
		s11.945-5.349,11.945-11.945v-39.61c17.767-5.184,30.796-21.587,30.796-41.008C460.205,327.453,447.176,311.051,429.409,305.867z
		 M417.464,365.729c-10.394,0-18.851-8.459-18.851-18.852c0-10.396,8.457-18.852,18.851-18.852s18.851,8.456,18.851,18.852
		C436.314,357.27,427.857,365.729,417.464,365.729z"/>
	<path fill="#222221" d="M300,149.837c-23.566,0-42.741,19.173-42.741,42.741c0,19.424,13.03,35.824,30.796,41.011v193.906
		c0,6.597,5.35,11.945,11.945,11.945c6.597,0,11.945-5.349,11.945-11.945V233.589c17.766-5.187,30.797-21.587,30.797-41.011
		C342.742,169.01,323.566,149.837,300,149.837z M300,211.43c-10.394,0-18.851-8.458-18.851-18.852
		c0-10.393,8.457-18.851,18.851-18.851c10.395,0,18.852,8.458,18.852,18.851C318.852,202.972,310.395,211.43,300,211.43z"/>
	<path fill="#222221" d="M194.481,258.99v-86.488c0-6.596-5.348-11.945-11.945-11.945c-6.597,0-11.945,5.35-11.945,11.945v86.488
		c-17.766,5.184-30.796,21.586-30.796,41.01c0,19.421,13.03,35.823,30.796,41.008v86.487c0,6.597,5.349,11.945,11.945,11.945
		c6.598,0,11.945-5.349,11.945-11.945v-86.487c17.767-5.185,30.797-21.587,30.797-41.008
		C225.278,280.576,212.248,264.174,194.481,258.99z M182.536,318.852c-10.394,0-18.851-8.459-18.851-18.852
		c0-10.396,8.457-18.852,18.851-18.852c10.395,0,18.852,8.456,18.852,18.852C201.388,310.393,192.931,318.852,182.536,318.852z"/>
</g>
</svg>
